<?xml version="1.0" encoding="UTF-8" standalone="no"?>
<svg
   xmlns:dc="http://purl.org/dc/elements/1.1/"
   xmlns:cc="http://creativecommons.org/ns#"
   xmlns:rdf="http://www.w3.org/1999/02/22-rdf-syntax-ns#"
   xmlns:svg="http://www.w3.org/2000/svg"
   xmlns="http://www.w3.org/2000/svg"
   xmlns:sodipodi="http://sodipodi.sourceforge.net/DTD/sodipodi-0.dtd"
   xmlns:inkscape="http://www.inkscape.org/namespaces/inkscape"
   width="12pt"
   height="12pt"
   viewBox="0 0 12 12"
   version="1.1"
   id="svg11"
   sodipodi:docname="Cancer_straight_symbol_(bold,_blue).svg"
   inkscape:version="0.92.5 (2060ec1f9f, 2020-04-08)">
  <metadata
     id="metadata17">
    <rdf:RDF>
      <cc:Work
         rdf:about="">
        <dc:format>image/svg+xml</dc:format>
        <dc:type
           rdf:resource="http://purl.org/dc/dcmitype/StillImage" />
        <dc:title />
      </cc:Work>
    </rdf:RDF>
  </metadata>
  <defs
     id="defs15" />
  <sodipodi:namedview
     pagecolor="#ffffff"
     bordercolor="#666666"
     borderopacity="1"
     objecttolerance="10"
     gridtolerance="10"
     guidetolerance="10"
     inkscape:pageopacity="0"
     inkscape:pageshadow="2"
     inkscape:window-width="1920"
     inkscape:window-height="1015"
     id="namedview13"
     showgrid="false"
     inkscape:zoom="20.85965"
     inkscape:cx="-1.2283428"
     inkscape:cy="6.0824223"
     inkscape:window-x="0"
     inkscape:window-y="0"
     inkscape:window-maximized="1"
     inkscape:current-layer="svg11"
     inkscape:snap-smooth-nodes="true"
     inkscape:snap-midpoints="true" />
  <g
     id="g4161">
    <path
       sodipodi:nodetypes="cssssc"
       style="fill:none;stroke:#00007f;stroke-width:1.5;stroke-linecap:round;stroke-linejoin:round;stroke-miterlimit:10;stroke-dasharray:none;stroke-opacity:1"
       d="m 8.9997499,2.74975 c 0,0 -5.4472655,0 -5.9999999,0 -1.1054688,0 -1.99999999,0.8945312 -1.99999999,2 0,1.1054688 0.89453119,2 1.99999999,2 1.1054688,0 2,-0.8945312 2,-2 0,-0.2763672 -0.055908,-0.5395508 -0.1570435,-0.7788697"
       id="path2"
       inkscape:connector-curvature="0" />
    <path
       sodipodi:nodetypes="cssssc"
       style="fill:none;stroke:#00007f;stroke-width:1.5;stroke-linecap:round;stroke-linejoin:round;stroke-miterlimit:10;stroke-dasharray:none;stroke-opacity:1"
       d="m 2.99975,9.25025 c 0,0 5.4472655,-10e-8 5.9999999,-10e-8 1.1054691,0 2.0000001,-0.8945311 2.0000001,-1.9999999 0,-1.1054689 -0.894531,-2 -2.0000001,-2 -1.1054688,0 -1.9999999,0.8945311 -1.9999999,2 0,0.2763672 0.055908,0.5395508 0.1570434,0.7788696"
       id="path2-3"
       inkscape:connector-curvature="0" />
  </g>
</svg>
