<?xml version="1.0" encoding="UTF-8" standalone="no"?>
<svg
   xmlns:dc="http://purl.org/dc/elements/1.1/"
   xmlns:cc="http://creativecommons.org/ns#"
   xmlns:rdf="http://www.w3.org/1999/02/22-rdf-syntax-ns#"
   xmlns:svg="http://www.w3.org/2000/svg"
   xmlns="http://www.w3.org/2000/svg"
   xmlns:sodipodi="http://sodipodi.sourceforge.net/DTD/sodipodi-0.dtd"
   xmlns:inkscape="http://www.inkscape.org/namespaces/inkscape"
   width="12pt"
   height="12pt"
   viewBox="0 0 12 12"
   version="1.1"
   id="svg9"
   sodipodi:docname="Scorpius symbol (bold, blue).svg"
   inkscape:version="0.92.5 (2060ec1f9f, 2020-04-08)">
  <metadata
     id="metadata15">
    <rdf:RDF>
      <cc:Work
         rdf:about="">
        <dc:format>image/svg+xml</dc:format>
        <dc:type
           rdf:resource="http://purl.org/dc/dcmitype/StillImage" />
      </cc:Work>
    </rdf:RDF>
  </metadata>
  <defs
     id="defs13">
    <clipPath
       id="clip1">
      <path
         inkscape:connector-curvature="0"
         d="M 0,0 H 80.398438 V 80.398438 H 0 Z m 0,0"
         id="path2-3" />
    </clipPath>
  </defs>
  <sodipodi:namedview
     pagecolor="#ffffff"
     bordercolor="#666666"
     borderopacity="1"
     objecttolerance="10"
     gridtolerance="10"
     guidetolerance="10"
     inkscape:pageopacity="0"
     inkscape:pageshadow="2"
     inkscape:window-width="1920"
     inkscape:window-height="1015"
     id="namedview11"
     showgrid="false"
     inkscape:zoom="41.7193"
     inkscape:cx="9.3460042"
     inkscape:cy="8"
     inkscape:window-x="0"
     inkscape:window-y="0"
     inkscape:window-maximized="1"
     inkscape:current-layer="svg9" />
  <g
     id="g840">
    <path
       id="path7"
       d="M 1.3662539,4.3839028 C 1.1318847,4.1495336 1.000125,3.8317943 1.000125,3.5000629 c 0,-0.3311484 0.1317597,-0.6494707 0.3661289,-0.8838398 0.2343691,-0.2343692 0.5526914,-0.3661289 0.8838399,-0.3661289 0.6902812,0 1.2499687,0.5596875 1.2499687,1.2499687 v 4.999875"
       style="clip-rule:nonzero;fill:none;stroke:#00007f;stroke-width:1.5;stroke-linecap:round;stroke-linejoin:round;stroke-miterlimit:4;stroke-dasharray:none;stroke-opacity:1"
       inkscape:connector-curvature="0" />
    <path
       id="path9"
       d="m 3.5000625,3.5000629 c 0,-0.6902812 0.5596875,-1.2499687 1.2499688,-1.2499687 C 5.4403125,2.2500942 6,2.8097817 6,3.5000629 v 4.999875"
       style="clip-rule:nonzero;fill:none;stroke:#00007f;stroke-width:1.5;stroke-linecap:round;stroke-linejoin:round;stroke-miterlimit:4;stroke-dasharray:none;stroke-opacity:1"
       inkscape:connector-curvature="0" />
    <path
       sodipodi:nodetypes="cssssssc"
       id="path11"
       d="M 6,3.5000629 C 6,2.8097817 6.5596875,2.2500942 7.2499688,2.2500942 c 0.6902812,0 1.2499687,0.5596875 1.2499687,1.2499687 v 4.999875 c 0,0.6902813 0.5596875,1.2499688 1.2499688,1.2499688 0.3317317,0 0.6494707,-0.1317599 0.8838397,-0.3661289 0.234369,-0.2343692 0.366129,-0.5521085 0.366129,-0.8838399 0,-0.3311484 -0.13176,-0.6494707 -0.366129,-0.8838398"
       style="clip-rule:nonzero;fill:none;stroke:#00007f;stroke-width:1.5;stroke-linecap:round;stroke-linejoin:round;stroke-miterlimit:4;stroke-dasharray:none;stroke-opacity:1"
       inkscape:connector-curvature="0" />
  </g>
</svg>
